<?xml version="1.0" encoding="UTF-8" standalone="no"?>
<!DOCTYPE svg PUBLIC "-//W3C//DTD SVG 1.1//EN" "http://www.w3.org/Graphics/SVG/1.1/DTD/svg11.dtd">
<svg width="100%" height="100%" viewBox="0 0 64 64" version="1.1" xmlns="http://www.w3.org/2000/svg" xmlns:xlink="http://www.w3.org/1999/xlink" xml:space="preserve" xmlns:serif="http://www.serif.com/" style="fill-rule:evenodd;clip-rule:evenodd;stroke-linecap:round;stroke-linejoin:round;">
    <g transform="matrix(1,0,0,1,-4,-3.25)">
        <g transform="matrix(0.82298,0,0,0.82298,6.3727,6.23994)">
            <g>
                <path d="M67.947,16.41C67.938,16.41 67.95,22.496 67.947,22.496L67.164,15.656C67.164,15.656 67.181,21.587 67.164,21.587C66.998,21.587 66.721,14.624 66.646,14.624L66.646,22.848C66.583,22.848 65.929,15.308 65.929,15.308C65.929,15.308 65.931,21.403 65.929,21.403C65.917,21.403 65.218,14.927 65.087,14.927L65.087,22.457L64.233,16.237C64.217,16.237 64.233,21.417 64.233,21.417L63.414,16.471C63.401,16.471 63.415,22.255 63.414,22.255C63.407,22.255 62.622,15.199 62.622,15.199L62.622,21.343C62.592,21.343 61.665,16.281 61.532,16.281C61.532,16.281 61.545,21.194 61.532,21.194C61.532,21.194 60.999,15.143 60.986,15.143C60.984,15.143 60.986,21.352 60.986,21.352C60.971,21.352 60.221,16.246 60.21,16.246C60.195,16.246 60.21,22.316 60.21,22.316C60.075,22.316 59.835,15.263 59.835,15.263L59.835,21.245C59.731,21.245 58.938,15.299 58.757,15.299C58.757,15.299 58.773,22.29 58.757,22.29C58.638,22.29 57.812,16.017 57.812,16.017L57.812,22.289C57.667,22.289 57.152,15.493 57.152,15.493C57.141,15.493 57.152,22.836 57.152,22.836C56.918,22.836 56.804,14.945 56.683,14.945C56.677,14.945 56.683,22.9 56.683,22.9C56.488,22.9 55.8,15.088 55.8,15.088L55.8,21.475C55.728,21.475 55.529,16.427 55.416,16.427C55.402,16.427 55.432,21.519 55.416,21.519L54.6,15.065C54.598,15.065 54.6,22.938 54.6,22.938C54.389,22.938 53.746,15.588 53.746,15.588L53.746,22.397C53.64,22.397 53.188,16.161 53.128,16.161C53.128,16.161 53.137,21.495 53.128,21.495C53.128,21.495 52.086,15.44 51.985,15.44L51.985,21.885L50.95,14.647C50.942,14.647 50.951,22.868 50.95,22.868L50.525,14.529C50.514,14.529 50.532,21.436 50.525,21.436L49.712,15.067C49.712,15.067 49.72,22.192 49.712,22.192C49.676,22.192 49.257,15.736 49.255,15.736C49.255,15.736 49.256,22.021 49.255,22.021C49.255,22.021 48.589,16.079 48.457,16.079C48.443,16.079 48.457,22.35 48.457,22.35C48.457,22.35 47.912,6.84 47.732,6.84C47.619,6.84 47.915,22.462 47.732,22.462C47.687,22.462 46.64,7.56 46.56,7.56C46.56,7.56 46.566,14.456 46.56,14.456C46.56,14.456 46.225,6.57 46.067,6.57C46.067,6.57 46.072,14.135 46.067,14.135C46.039,14.135 45.583,6.994 45.583,6.994L45.583,14.668C45.479,14.668 44.793,6.666 44.793,6.666C44.779,6.666 44.793,14.532 44.793,14.532C44.793,14.532 44.001,6.42 43.826,6.42C43.819,6.42 43.826,13.813 43.826,13.813C43.826,13.813 42.697,11.485 42.635,11.485L42.635,19.339C42.635,19.339 42.35,10.942 42.147,10.942C42.147,10.942 42.149,19.253 42.147,19.253C42.059,19.253 41.213,11.069 41.092,11.069C41.08,11.069 41.097,18.433 41.092,18.433C40.946,18.433 40.756,11.211 40.633,11.211C40.631,11.211 40.633,18.479 40.633,18.479C40.631,18.479 39.588,11.356 39.442,11.356C39.442,11.356 39.444,19.222 39.442,19.222C39.217,19.222 38.54,10.844 38.54,10.844C38.54,10.844 38.555,18.239 38.54,18.239C38.54,18.239 37.715,11.346 37.583,11.346C37.583,11.346 37.6,18.355 37.583,18.355C37.506,18.355 37.223,11.071 37.019,11.071L37.019,18.739C37.019,18.739 36.375,1.835 36.253,1.835L36.253,18.157L35.765,3.057C35.759,3.057 35.775,8.932 35.765,8.932L34.598,3.462C34.59,3.462 34.753,18.847 34.598,18.847L33.582,11.65C33.565,11.65 33.582,18.252 33.582,18.252C33.451,18.252 32.506,12.2 32.487,12.2C32.487,12.2 32.494,18.777 32.487,18.777C32.333,18.777 31.639,11.346 31.53,11.346C31.53,11.346 31.536,18.064 31.53,18.064L30.455,10.009L30.455,16.536C30.406,16.536 29.32,8.658 29.32,8.658L29.32,15.409C29.151,15.409 28.811,9.465 28.658,9.465L28.658,16.431C28.658,16.431 28.122,8.851 27.912,8.851L27.912,16.538C27.779,16.538 27.19,9.329 27.19,9.329C27.184,9.329 27.19,15.592 27.19,15.592C27.175,15.592 26.461,8.561 26.332,8.561C26.33,8.561 26.342,15.019 26.332,15.019C26.332,15.019 25.195,8.67 25.194,8.67C25.194,8.67 25.205,16.746 25.194,16.746C25.191,16.746 24.825,9.226 24.618,9.226C24.618,9.226 24.627,16.555 24.618,16.555C24.535,16.555 24.198,9.432 24.189,9.432C24.178,9.432 24.189,16.216 24.189,16.216L23.196,9.161C23.196,9.161 23.209,16.471 23.196,16.471L21.978,10.112C21.967,10.112 21.978,16.045 21.978,16.045C21.959,16.045 21.271,9.91 21.271,9.91L21.271,16.601C21.164,16.601 20.872,8.463 20.872,8.463C20.861,8.463 20.873,16.822 20.872,16.822C20.851,16.822 19.708,7.108 19.659,7.108C19.659,7.108 19.706,15.363 19.659,15.363C19.443,15.363 18.735,7.294 18.597,7.294L18.597,12.826L17.567,7.659C17.537,7.659 17.619,15.173 17.567,15.173L17.131,7.743C17.088,7.743 17.131,15.822 17.131,15.822C17.096,15.822 16.444,8.78 16.365,8.78L16.365,15.755C16.365,15.755 15.407,8.473 15.403,8.473C15.402,8.473 15.403,15.86 15.403,15.86C15.402,15.86 14.353,9.35 14.353,9.35L14.353,16.417C14.353,16.417 13.244,8.356 13.158,8.356C13.156,8.356 13.171,14.869 13.158,14.869C13.084,14.869 12.752,9.21 12.752,9.21C12.744,9.21 12.752,15.717 12.752,15.717C12.752,15.717 12.162,2.49 12.148,2.49C12.05,2.49 12.148,15.166 12.148,15.166L11.529,3.136C11.526,3.136 11.529,8.705 11.529,8.705C11.391,8.705 10.591,3.446 10.435,3.446C10.425,3.446 10.446,9.629 10.435,9.629L9.345,3.444C9.345,3.444 9.357,8.344 9.345,8.344C9.282,8.344 8.837,2.918 8.813,2.918L8.813,9.435L7.772,2.074C7.756,2.074 7.782,8.725 7.772,8.725C7.706,8.725 7.168,2.142 7.168,2.142C7.156,2.142 7.178,8.341 7.168,8.341L6.653,2.536L6.653,9.833C6.653,9.833 5.689,2.357 5.624,2.357L5.624,9.566C5.624,9.566 5.15,2.398 5.074,2.398C5.065,2.398 5.091,10.017 5.074,10.017L4.524,2.53C4.507,2.53 4.534,8.823 4.524,8.823" style="fill:none;fill-rule:nonzero;stroke:rgb(236,28,36);stroke-width:0.43px;"/>
            </g>
        </g>
        <g transform="matrix(0.82298,0,0,0.82298,6.3727,6.23994)">
            <g>
                <g>
                    <path d="M68.3,15.594C68.291,15.594 68.3,21.492 68.3,21.492C68.289,21.492 67.247,14.958 67.247,14.958C67.24,14.958 67.261,20.795 67.247,20.795C67.185,20.795 66.47,14.81 66.295,14.81L66.295,22.24C66.144,22.24 65.91,15.685 65.833,15.685C65.817,15.685 65.843,21.584 65.833,21.584C65.684,21.584 65.264,14.746 65.061,14.746C65.051,14.746 65.061,21.865 65.061,21.865L64.524,14.909C64.516,14.909 64.524,22.55 64.524,22.55C64.46,22.55 63.657,15.939 63.657,15.939C63.649,15.939 63.664,22.648 63.657,22.648C63.588,22.648 62.647,16.14 62.491,16.14C62.486,16.14 62.491,22.472 62.491,22.472C62.287,22.472 61.812,14.571 61.741,14.571C61.734,14.571 61.742,20.966 61.741,20.966C61.592,20.966 61.095,15.791 61.095,15.791C61.081,15.791 61.096,21.001 61.095,21.001C61.095,21.001 60.241,15.363 60.159,15.363L60.159,22.409C60.159,22.409 59.799,14.311 59.726,14.311C59.723,14.311 59.726,21.335 59.726,21.335C59.649,21.335 59.237,15.063 59.073,15.063L59.073,22.264C58.998,22.264 58.284,15.56 58.21,15.56C58.202,15.56 58.21,21.821 58.21,21.821L57.597,15.549C57.588,15.549 57.598,20.877 57.597,20.877C57.149,20.877 57.172,2.246 56.944,2.246L56.944,21.056C56.89,21.056 56.08,2.044 56.026,2.044C56.017,2.044 56.035,8.808 56.026,8.808C55.927,8.808 55.618,2.458 55.443,2.458C55.437,2.458 55.443,7.979 55.443,7.979C55.439,7.979 54.921,0.911 54.921,0.911L54.921,7.732C54.774,7.732 54.313,1.804 54.271,1.804C54.262,1.804 54.284,8.051 54.271,8.051L53.241,2.345C53.232,2.345 53.248,8.439 53.241,8.439C53.129,8.439 52.764,1.586 52.764,1.586C52.75,1.586 52.764,7.353 52.764,7.353C52.764,7.353 52.396,1.123 52.273,1.123L52.273,7.78C52.256,7.78 51.309,1.906 51.309,1.906L51.309,7.339C51.239,7.339 50.227,0.759 50.227,0.759C50.227,0.759 50.24,8.854 50.227,8.854C50.227,8.854 49.61,1.052 49.538,1.052L49.538,8.312C49.538,8.312 48.536,0.965 48.501,0.965C48.493,0.965 48.501,8.444 48.501,8.444C48.501,8.444 47.482,10.4 47.442,10.4C47.442,10.4 47.445,16.026 47.442,16.026C47.442,16.026 46.463,10.194 46.399,10.194C46.385,10.194 46.412,15.589 46.399,15.589C46.266,15.589 45.523,10.363 45.456,10.363L45.456,16.131L44.431,9.679C44.43,9.679 44.443,15.528 44.431,15.528L43.426,4.777C43.426,4.777 43.578,16.839 43.426,16.839C43.272,16.839 43.192,5.535 42.859,5.535C42.855,5.535 42.859,11.043 42.859,11.043L41.705,4.806C41.703,4.806 41.705,12.057 41.705,12.057C41.705,12.057 40.826,5.748 40.727,5.748C40.724,5.748 40.727,11.837 40.727,11.837C40.727,11.837 39.938,5.173 39.822,5.173C39.809,5.173 39.834,11.307 39.822,11.307C39.822,11.307 39.031,4.96 38.954,4.96C38.939,4.96 38.965,11.929 38.954,11.929C38.954,11.929 38.27,4.884 38.162,4.884L38.162,12.238C38.162,12.238 37.748,4.547 37.709,4.547C37.707,4.547 37.723,12.635 37.709,12.635C37.707,12.635 37.474,4.77 37.327,4.77C37.327,4.77 37.333,11.49 37.327,11.49C37.32,11.49 36.189,15.08 36.159,15.08C36.15,15.08 36.159,21.101 36.159,21.101C36.104,21.101 35.58,14.326 35.419,14.326C35.417,14.326 35.434,20.139 35.419,20.139L34.706,5.235C34.693,5.235 34.706,11.033 34.706,11.033L33.94,5.759C33.929,5.759 33.949,11.967 33.94,11.967C33.94,11.967 33.282,4.293 33.235,4.293C33.228,4.293 33.251,11.831 33.235,11.831C33.171,11.831 32.502,4.276 32.501,4.276C32.501,4.276 32.51,12.26 32.501,12.26C32.368,12.26 31.51,5.482 31.422,5.482C31.417,5.482 31.422,12.507 31.422,12.507C31.361,12.507 30.266,7.85 30.247,7.85C30.247,7.85 30.263,14.197 30.247,14.197C30.111,14.197 29.809,8.149 29.735,8.149C29.732,8.149 29.746,13.965 29.735,13.965C29.735,13.965 29.406,7.072 29.299,7.072C29.298,7.072 29.299,14.487 29.299,14.487C29.174,14.487 28.425,7.817 28.238,7.817C28.238,7.817 28.239,14.841 28.238,14.841C28.09,14.841 27.8,7.64 27.636,7.64L27.636,15.379C27.501,15.379 27.258,8.157 27.122,8.157C27.105,8.157 27.122,14.903 27.122,14.903C27.107,14.903 26.498,7.656 26.498,7.656C26.496,7.656 26.498,13.538 26.498,13.538C26.379,13.538 25.555,6.965 25.555,6.965L25.555,13.713C25.555,13.713 25.041,8.17 24.993,8.17C24.986,8.17 25.002,14.834 24.993,14.834C24.993,14.834 24.298,8.779 24.249,8.779C24.231,8.779 24.249,13.92 24.249,13.92C24.192,13.92 23.667,7.192 23.667,7.192C23.664,7.192 23.667,13.942 23.667,13.942C23.525,13.942 22.758,7.866 22.758,7.866C22.756,7.866 22.768,14.002 22.758,14.002C22.702,14.002 22.078,7.15 22.034,7.15C22.032,7.15 22.034,14.737 22.034,14.737C22.029,14.737 21.607,8.658 21.536,8.658C21.523,8.658 21.536,15.401 21.536,15.401C21.536,15.401 20.556,7.92 20.513,7.92C20.483,7.92 20.58,15.897 20.513,15.897C20.427,15.897 19.699,9.66 19.69,9.66L19.69,16.896C19.604,16.896 18.909,9.559 18.735,9.559C18.722,9.559 18.735,16.118 18.735,16.118C18.635,16.118 18.108,8.142 17.923,8.142C17.923,8.142 17.966,16.832 17.923,16.832C17.822,16.832 17.237,8.574 17.035,8.574L17.035,15.024L16.302,8.111C16.302,8.111 16.317,13.798 16.302,13.798C16.245,13.798 15.966,8.732 15.819,8.732C15.816,8.732 15.828,15.34 15.819,15.34C15.591,15.34 15.417,7.052 15.191,7.052C15.191,7.052 15.204,14.315 15.191,14.315C15.024,14.315 14.436,7.616 14.375,7.616C14.375,7.616 14.392,14.627 14.375,14.627C14.204,14.627 13.549,8.472 13.549,8.472L13.549,13.762C13.372,13.762 12.833,7.303 12.833,7.303C12.833,7.303 12.846,13.543 12.833,13.543C12.742,13.543 12.195,8.045 12.187,8.045L12.187,21.546C12.187,21.546 11.601,15.446 11.419,15.446L11.419,21.651C11.27,21.651 10.743,14.126 10.571,14.126C10.567,14.126 10.573,20.245 10.571,20.245C10.518,20.245 9.997,13.59 9.831,13.59C9.829,13.59 9.843,21.766 9.831,21.766C9.831,21.766 8.931,15.194 8.923,15.194C8.913,15.194 8.933,21.398 8.923,21.398C8.759,21.398 7.796,14.318 7.788,14.318C7.777,14.318 7.795,21.328 7.788,21.328C7.598,21.328 6.613,14.064 6.61,14.064C6.592,14.064 6.61,21.082 6.61,21.082C6.418,21.082 6.173,14.185 5.989,14.185C5.977,14.185 5.989,21.665 5.989,21.665C5.867,21.665 5.209,14.998 5.028,14.998C5.027,14.998 5.042,21.402 5.028,21.402" style="fill:none;fill-rule:nonzero;stroke:rgb(0,161,75);stroke-width:0.43px;"/>
                </g>
            </g>
        </g>
        <g transform="matrix(0.82298,0,0,0.82298,6.3727,6.23994)">
            <path d="M68.084,21.75L4.416,21.75L4.416,2" style="fill:none;fill-rule:nonzero;stroke:rgb(35,31,32);stroke-width:0.61px;stroke-linecap:butt;stroke-linejoin:miter;"/>
        </g>
        <g transform="matrix(0.82298,0,0,0.82298,6.3727,6.23994)">
            <g>
                <path d="M47.916,30.53C47.903,30.53 47.926,44.259 47.916,44.259L47.194,29.623C47.189,29.623 47.198,37.912 47.194,37.912C47.024,37.912 46.643,30.945 46.591,30.945L46.591,36.929C46.591,36.929 45.899,29.809 45.77,29.809C45.763,29.809 45.77,36.577 45.77,36.577C45.721,36.577 44.789,30.663 44.782,30.663L44.782,37.269C44.611,37.269 43.967,31.358 43.967,31.358C43.965,31.358 43.974,37.79 43.967,37.79C43.967,37.79 43.231,31.084 43.104,31.084C42.984,31.084 43.151,41.858 43.104,41.858C42.935,41.858 42.614,35.54 42.595,35.54C42.578,35.54 42.595,41.216 42.595,41.216C42.595,41.216 42.204,34.45 42.015,34.45C42.015,34.45 42.016,41.479 42.015,41.479C42.015,41.479 41.741,35.25 41.612,35.25C41.601,35.25 41.612,42.36 41.612,42.36L40.41,34.878C40.41,34.878 40.411,41.735 40.41,41.735C40.271,41.735 39.712,34.309 39.712,34.309C39.696,34.309 39.722,41.992 39.712,41.992C39.569,41.992 39.157,36.189 38.993,36.189L38.993,41.039L38.321,35.015C38.307,35.015 38.321,42.077 38.321,42.077L37.23,34.245C37.227,34.245 37.232,41.659 37.23,41.659C37.065,41.659 36.501,25.646 36.472,25.646C36.207,25.646 36.498,42.658 36.472,42.658C36.472,42.658 35.795,26.947 35.709,26.947C35.694,26.947 35.71,33.419 35.709,33.419C35.709,33.419 35.362,26.988 35.27,26.988C35.26,26.988 35.274,32.177 35.27,32.177C35.27,32.177 35.006,25.158 34.841,25.158L34.841,41.259C34.707,41.259 34.512,34.521 34.32,34.521L34.32,41.168L33.946,35.007C33.946,35.007 33.948,42.638 33.946,42.638L33.17,35.492L33.17,41.216C32.977,41.216 32.54,34.223 32.54,34.223L32.54,41.023C32.341,41.023 31.429,34.394 31.369,34.394C31.355,34.394 31.372,41.394 31.369,41.394C31.205,41.394 30.325,32.081 30.325,32.081C30.319,32.081 30.326,39.319 30.325,39.319L29.771,33.29C29.765,33.29 29.779,38.331 29.771,38.331C29.771,38.331 28.783,33.128 28.63,33.128C28.629,33.128 28.63,38.719 28.63,38.719C28.63,38.719 27.752,32.88 27.743,32.88C27.739,32.88 27.743,38.61 27.743,38.61C27.651,38.61 27.048,33.548 27.048,33.548L27.048,39.111C26.874,39.111 26.357,31.697 26.274,31.697C26.259,31.697 26.286,39.311 26.274,39.311C26.274,39.311 25.676,32.824 25.529,32.824C25.516,32.824 25.529,38.57 25.529,38.57L24.389,32.118C24.383,32.118 24.4,38.264 24.389,38.264C24.389,38.264 23.709,33.605 23.573,33.605C23.573,33.605 23.583,39.278 23.573,39.278C23.524,39.278 22.841,33.432 22.841,33.432C22.841,33.432 22.846,38.268 22.841,38.268C22.798,38.268 22.377,31.707 22.255,31.707C22.246,31.707 22.255,38.295 22.255,38.295C22.249,38.295 21.792,32.466 21.736,32.466C21.736,32.466 21.745,39.699 21.736,39.699L21.221,32.214C21.209,32.214 21.233,39.648 21.221,39.648L20.787,33.402C20.787,33.402 20.804,39.708 20.787,39.708C20.766,39.708 19.764,30.199 19.708,30.199C19.696,30.199 19.765,39.904 19.708,39.904C19.708,39.904 19.179,31.189 19.166,31.189C19.159,31.189 19.168,37.585 19.166,37.585C18.95,37.585 17.948,29.68 17.948,29.68C17.946,29.68 17.948,36.788 17.948,36.788L17.036,33.528C17.026,33.528 17.038,38.726 17.036,38.726C17.036,38.726 16.242,31.815 16.219,31.815C16.219,31.815 16.223,39.911 16.219,39.911L15.031,31.71C15.022,31.71 15.039,40.059 15.031,40.059L14.32,32.245C14.32,32.245 14.328,39.92 14.32,39.92C14.17,39.92 13.965,32.841 13.763,32.841C13.76,32.841 13.771,40.152 13.763,40.152C13.632,40.152 12.972,32.883 12.972,32.883C12.96,32.883 12.976,38.408 12.972,38.408C12.608,38.408 11.791,26.131 11.791,26.131C11.791,26.131 11.877,35.42 11.791,35.42L10.696,26.698C10.694,26.698 10.696,31.779 10.696,31.779C10.535,31.779 10.221,26.341 10.146,26.341C10.146,26.341 10.147,31.872 10.146,31.872C10.067,31.872 9.584,25.565 9.584,25.565L9.584,31.948C9.528,31.948 9.089,26.466 9.089,26.466C9.071,26.466 9.103,31.841 9.089,31.841C8.952,31.841 8.323,26.921 8.323,26.921C8.318,26.921 8.324,32.322 8.323,32.322C8.323,32.322 7.255,25.723 7.108,25.723L7.108,32.884C6.955,32.884 6.402,26.609 6.22,26.609C6.22,26.609 6.233,32.559 6.22,32.559C6.22,32.559 5.061,25.509 4.993,25.509L4.993,32.536C4.89,32.536 4.572,26.873 4.521,26.873C4.52,26.873 4.521,33.039 4.521,33.039" style="fill:none;fill-rule:nonzero;stroke:rgb(34,64,153);stroke-width:0.43px;"/>
            </g>
        </g>
        <g transform="matrix(0.82298,0,0,0.82298,6.3727,6.23994)">
            <path d="M68.084,42.182L47.75,42.182" style="fill:none;fill-rule:nonzero;stroke:rgb(34,64,153);stroke-width:0.61px;stroke-linecap:butt;stroke-linejoin:miter;stroke-dasharray:1,1;"/>
        </g>
        <g transform="matrix(0.82298,0,0,0.82298,6.3727,6.23994)">
            <path d="M68.084,45.125L4.416,45.125L4.416,25.375" style="fill:none;fill-rule:nonzero;stroke:rgb(35,31,32);stroke-width:0.61px;stroke-linecap:butt;stroke-linejoin:miter;"/>
        </g>
        <g transform="matrix(0.82298,0,0,0.82298,6.3727,6.23994)">
            <path d="M4.417,52.676L12.084,52.676L12.084,59.3L17.417,59.3L17.417,57.215L19.917,57.215L19.917,59.3L30.75,59.3L30.75,61.876L34.75,61.876L34.75,52.676L36.25,52.676L36.25,61.876L43.25,61.876L43.25,57.275L47.75,57.275L47.75,65.557" style="fill:none;fill-rule:nonzero;stroke:rgb(35,31,32);stroke-width:0.61px;stroke-linecap:butt;stroke-linejoin:miter;"/>
        </g>
        <g transform="matrix(0.82298,0,0,0.82298,6.3727,6.23994)">
            <path d="M68.084,68.5L4.416,68.5L4.416,48.75" style="fill:none;fill-rule:nonzero;stroke:rgb(35,31,32);stroke-width:0.61px;stroke-linecap:butt;stroke-linejoin:miter;"/>
        </g>
        <g transform="matrix(0.82298,0,0,0.82298,6.3727,6.23994)">
            <path d="M68.084,65.557L47.75,65.557" style="fill:none;fill-rule:nonzero;stroke:rgb(35,31,32);stroke-width:0.61px;stroke-linecap:butt;stroke-linejoin:miter;stroke-dasharray:1,1;"/>
        </g>
    </g>
</svg>
